<?xml version="1.0" standalone="no"?>
<!DOCTYPE svg PUBLIC "-//W3C//DTD SVG 20010904//EN"
 "http://www.w3.org/TR/2001/REC-SVG-20010904/DTD/svg10.dtd">
<svg version="1.0" xmlns="http://www.w3.org/2000/svg"
 width="126.000000pt" height="126.000000pt" viewBox="0 0 126.000000 126.000000"
 preserveAspectRatio="xMidYMid meet">
<metadata>
Created by potrace 1.14, written by Peter Selinger 2001-2017
</metadata>
<g transform="translate(0.000000,126.000000) scale(0.100000,-0.100000)"
fill="#000000" stroke="none">
<path d="M206 1242 c-96 -32 -179 -133 -194 -237 -4 -27 -7 -210 -6 -406 l1
-356 25 -55 c33 -72 83 -122 155 -155 l57 -26 361 -2 c229 0 381 3 417 10 105
21 199 109 227 213 8 28 11 166 10 414 -1 432 -3 441 -89 528 -89 88 -95 89
-535 88 -321 0 -388 -3 -429 -16z"/>
</g>
</svg>
