<?xml version="1.0" standalone="no"?>
<!DOCTYPE svg PUBLIC "-//W3C//DTD SVG 20010904//EN"
 "http://www.w3.org/TR/2001/REC-SVG-20010904/DTD/svg10.dtd">
<svg version="1.0" xmlns="http://www.w3.org/2000/svg"
 width="700.000000pt" height="700.000000pt" viewBox="0 0 700.000000 700.000000"
 preserveAspectRatio="xMidYMid meet">
<metadata>
Created by potrace 1.14, written by Peter Selinger 2001-2017
</metadata>
<g transform="translate(0.000000,700.000000) scale(0.100000,-0.100000)"
fill="#000000" stroke="none">
<path d="M835 6288 c-87 -10 -152 -33 -183 -67 -94 -102 -106 -335 -32 -616
25 -94 82 -256 120 -340 14 -33 33 -76 40 -95 36 -89 181 -361 288 -540 126
-211 420 -647 519 -770 44 -55 173 -230 169 -230 -2 0 -42 17 -88 38 -338 156
-590 198 -879 146 -121 -21 -183 -23 -240 -9 -25 7 -123 51 -217 98 -95 47
-172 81 -172 76 0 -19 135 -141 206 -185 76 -48 195 -99 254 -109 18 -3 36 -7
39 -9 3 -2 37 -7 74 -11 37 -3 78 -8 90 -11 12 -2 46 -8 75 -14 268 -49 602
-214 1049 -518 247 -168 710 -542 906 -732 l109 -105 -74 -50 c-145 -98 -295
-273 -386 -452 -38 -74 -79 -176 -122 -303 -43 -130 -42 -120 -45 -255 -3
-140 6 -242 40 -433 21 -119 23 -132 41 -204 1 -5 2 -17 3 -28 0 -11 5 -20 11
-20 5 0 9 3 8 8 -3 9 29 105 54 162 149 337 371 625 548 711 127 62 173 73
295 73 110 0 242 -8 324 -20 101 -14 151 -52 400 -296 103 -101 233 -218 289
-260 184 -139 354 -204 543 -207 78 -2 114 -8 182 -31 112 -38 218 -57 291
-53 l59 3 77 -77 c142 -144 231 -222 336 -293 76 -52 122 -69 168 -63 28 4 89
41 131 80 11 10 61 54 110 98 50 44 92 82 95 85 3 3 63 54 133 114 260 219
333 361 264 506 -18 39 -64 96 -142 174 -39 40 -84 94 -99 119 -25 43 -26 51
-17 100 34 184 -43 456 -241 852 -105 208 -194 329 -463 624 -22 24 -45 49
-50 55 -29 32 -183 203 -202 223 -23 26 -132 242 -178 353 -34 81 -62 167 -80
245 -13 58 -17 83 -35 205 -8 55 -5 367 3 405 2 11 8 42 11 68 10 64 11 69 35
164 27 104 27 104 -9 63 -61 -71 -181 -259 -243 -380 -65 -128 -147 -321 -147
-347 0 -24 -16 -6 -118 130 -463 620 -633 1077 -526 1412 21 66 72 149 127
208 25 26 42 47 38 47 -15 0 -126 -72 -186 -121 -34 -27 -80 -71 -101 -96 -21
-25 -47 -55 -57 -67 -33 -38 -95 -179 -111 -251 -28 -135 -9 -319 55 -530 31
-102 124 -340 142 -363 5 -7 8 -14 6 -17 -4 -4 -49 34 -129 109 -173 161 -653
559 -845 701 -22 16 -42 32 -45 35 -9 10 -282 205 -411 293 -378 256 -802 494
-1099 616 -58 24 -114 47 -125 51 -80 34 -306 100 -386 114 -111 19 -191 23
-274 14z"/>
</g>
</svg>
